<svg id="canvas" height="auto" xmlns="http://www.w3.org/2000/svg" version="1.1" xmlns:xlink="http://www.w3.org/1999/xlink" xmlns:svgjs="http://svgjs.dev/svgjs" viewBox="0 0 900 512" width="auto" style="width: auto; height: auto;"><rect width="900" height="512" fill="transparent"/><circle r="3.342514823432662" cx="7.342514823432662" cy="342.9037797563532" fill="#a7020a"/><circle r="3.694077323432662" cx="7.694077323432662" cy="373.2553422563532" fill="#a70802"/><circle r="4.045639823432662" cx="8.045639823432662" cy="403.6069047563532" fill="#a71602"/><circle r="4.397202323432662" cx="8.397202323432662" cy="433.9584672563532" fill="#a72402"/><circle r="4.748764823432662" cx="8.748764823432662" cy="464.3100297563532" fill="#a73202"/><circle r="5.100327323432662" cx="9.100327323432662" cy="494.6615922563532" fill="#a74002"/><circle r="2.9031987821118874" cx="36.903198782111886" cy="304.97616152232627" fill="#a7020a"/><circle r="3.2547612821118874" cx="37.254761282111886" cy="335.32772402232627" fill="#a70802"/><circle r="3.6063237821118874" cx="37.606323782111886" cy="365.67928652232627" fill="#a71602"/><circle r="3.9578862821118874" cx="37.957886282111886" cy="396.03084902232627" fill="#a72402"/><circle r="4.309448782111888" cx="38.309448782111886" cy="426.38241152232627" fill="#a73202"/><circle r="4.661011282111888" cx="38.661011282111886" cy="456.73397402232627" fill="#a74002"/><circle r="5.012573782111888" cx="39.012573782111886" cy="487.08553652232627" fill="#a74e02"/><circle r="2.8669550928998273" cx="66.86695509289983" cy="301.8471230203518" fill="#a7020a"/><circle r="3.2185175928998273" cx="67.21851759289983" cy="332.1986855203518" fill="#a70802"/><circle r="3.5700800928998273" cx="67.57008009289983" cy="362.5502480203518" fill="#a71602"/><circle r="3.9216425928998273" cx="67.92164259289983" cy="392.9018105203518" fill="#a72402"/><circle r="4.273205092899827" cx="68.27320509289983" cy="423.2533730203518" fill="#a73202"/><circle r="4.624767592899827" cx="68.62476759289983" cy="453.6049355203518" fill="#a74002"/><circle r="4.976330092899827" cx="68.97633009289983" cy="483.9564980203518" fill="#a74e02"/><circle r="5.327892592899827" cx="69.32789259289983" cy="514.3080605203518" fill="#a75c02"/><circle r="3.3616934284860815" cx="97.36169342848608" cy="344.5595326592984" fill="#a7020a"/><circle r="3.7132559284860815" cx="97.71325592848608" cy="374.9110951592984" fill="#a70802"/><circle r="4.064818428486081" cx="98.06481842848608" cy="405.2626576592984" fill="#a71602"/><circle r="4.416380928486081" cx="98.41638092848608" cy="435.6142201592984" fill="#a72402"/><circle r="4.767943428486081" cx="98.76794342848608" cy="465.9657826592984" fill="#a73202"/><circle r="5.119505928486081" cx="99.11950592848608" cy="496.3173451592984" fill="#a74002"/><circle r="3.062272207978722" cx="127.06227220797872" cy="318.709500622163" fill="#a7020a"/><circle r="3.413834707978722" cx="127.41383470797872" cy="349.061063122163" fill="#a70802"/><circle r="3.765397207978722" cx="127.76539720797872" cy="379.412625622163" fill="#a71602"/><circle r="4.116959707978722" cx="128.1169597079787" cy="409.764188122163" fill="#a72402"/><circle r="4.468522207978722" cx="128.4685222079787" cy="440.115750622163" fill="#a73202"/><circle r="4.820084707978722" cx="128.8200847079787" cy="470.467313122163" fill="#a74002"/><circle r="5.171647207978722" cx="129.1716472079787" cy="500.818875622163" fill="#a74e02"/><circle r="2.9019884557475133" cx="156.9019884557475" cy="304.87167001286866" fill="#a7020a"/><circle r="3.2535509557475133" cx="157.2535509557475" cy="335.22323251286866" fill="#a70802"/><circle r="3.6051134557475133" cx="157.6051134557475" cy="365.57479501286866" fill="#a71602"/><circle r="3.9566759557475133" cx="157.9566759557475" cy="395.92635751286866" fill="#a72402"/><circle r="4.308238455747514" cx="158.30823845574753" cy="426.27792001286866" fill="#a73202"/><circle r="4.659800955747514" cx="158.65980095574753" cy="456.62948251286866" fill="#a74002"/><circle r="5.011363455747514" cx="159.01136345574753" cy="486.98104501286866" fill="#a74e02"/><circle r="5.362925955747514" cx="159.36292595574753" cy="517.3326075128687" fill="#a75c02"/><circle r="3.072123710838139" cx="187.07212371083813" cy="319.5600137023593" fill="#a7020a"/><circle r="3.423686210838139" cx="187.42368621083813" cy="349.9115762023593" fill="#a70802"/><circle r="3.775248710838139" cx="187.77524871083813" cy="380.2631387023593" fill="#a71602"/><circle r="4.126811210838139" cx="188.12681121083813" cy="410.6147012023593" fill="#a72402"/><circle r="4.478373710838139" cx="188.47837371083813" cy="440.9662637023593" fill="#a73202"/><circle r="4.829936210838139" cx="188.82993621083813" cy="471.3178262023593" fill="#a74002"/><circle r="5.181498710838139" cx="189.18149871083813" cy="501.6693887023593" fill="#a74e02"/><circle r="2.733382752456098" cx="216.7333827524561" cy="290.3153776287098" fill="#a7020a"/><circle r="3.084945252456098" cx="217.0849452524561" cy="320.6669401287098" fill="#a70802"/><circle r="3.436507752456098" cx="217.4365077524561" cy="351.0185026287098" fill="#a71602"/><circle r="3.788070252456098" cx="217.7880702524561" cy="381.3700651287098" fill="#a72402"/><circle r="4.139632752456098" cx="218.1396327524561" cy="411.7216276287098" fill="#a73202"/><circle r="4.491195252456098" cx="218.4911952524561" cy="442.0731901287098" fill="#a74002"/><circle r="4.842757752456098" cx="218.8427577524561" cy="472.4247526287098" fill="#a74e02"/><circle r="5.194320252456098" cx="219.1943202524561" cy="502.7763151287098" fill="#a75c02"/><circle r="2.9146299460489056" cx="246.9146299460489" cy="305.9630520088889" fill="#a7020a"/><circle r="3.2661924460489056" cx="247.2661924460489" cy="336.3146145088889" fill="#a70802"/><circle r="3.6177549460489056" cx="247.6177549460489" cy="366.6661770088889" fill="#a71602"/><circle r="3.9693174460489056" cx="247.9693174460489" cy="397.0177395088889" fill="#a72402"/><circle r="4.320879946048906" cx="248.3208799460489" cy="427.3693020088889" fill="#a73202"/><circle r="4.672442446048906" cx="248.6724424460489" cy="457.7208645088889" fill="#a74002"/><circle r="5.024004946048906" cx="249.0240049460489" cy="488.0724270088889" fill="#a74e02"/><circle r="3.3380500672946605" cx="277.33805006729466" cy="342.51832247643904" fill="#a7020a"/><circle r="3.6896125672946605" cx="277.68961256729466" cy="372.86988497643904" fill="#a70802"/><circle r="4.0411750672946605" cx="278.04117506729466" cy="403.22144747643904" fill="#a71602"/><circle r="4.3927375672946605" cx="278.39273756729466" cy="433.57300997643904" fill="#a72402"/><circle r="4.7443000672946605" cx="278.74430006729466" cy="463.92457247643904" fill="#a73202"/><circle r="5.0958625672946605" cx="279.09586256729466" cy="494.27613497643904" fill="#a74002"/><circle r="2.4214369374054288" cx="306.4214369374054" cy="263.384055596002" fill="#a7020a"/><circle r="2.7729994374054288" cx="306.7729994374054" cy="293.735618096002" fill="#a70802"/><circle r="3.1245619374054288" cx="307.1245619374054" cy="324.087180596002" fill="#a71602"/><circle r="3.4761244374054288" cx="307.4761244374054" cy="354.438743096002" fill="#a72402"/><circle r="3.8276869374054288" cx="307.8276869374054" cy="384.790305596002" fill="#a73202"/><circle r="4.179249437405429" cx="308.1792494374054" cy="415.141868096002" fill="#a74002"/><circle r="4.530811937405429" cx="308.5308119374054" cy="445.493430596002" fill="#a74e02"/><circle r="4.882374437405429" cx="308.8823744374054" cy="475.844993096002" fill="#a75c02"/><circle r="5.233936937405429" cx="309.2339369374054" cy="506.196555596002" fill="#a76a02"/><circle r="2.8588612335612558" cx="336.85886123356124" cy="301.1483531641217" fill="#a7020a"/><circle r="3.2104237335612558" cx="337.21042373356124" cy="331.4999156641217" fill="#a70802"/><circle r="3.5619862335612558" cx="337.56198623356124" cy="361.8514781641217" fill="#a71602"/><circle r="3.9135487335612558" cx="337.91354873356124" cy="392.2030406641217" fill="#a72402"/><circle r="4.265111233561256" cx="338.26511123356124" cy="422.5546031641217" fill="#a73202"/><circle r="4.616673733561256" cx="338.61667373356124" cy="452.9061656641217" fill="#a74002"/><circle r="4.968236233561256" cx="338.96823623356124" cy="483.2577281641217" fill="#a74e02"/><circle r="5.319798733561256" cx="339.31979873356124" cy="513.6092906641218" fill="#a75c02"/><circle r="2.482535123880987" cx="366.482535123881" cy="268.6588656950586" fill="#a7020a"/><circle r="2.834097623880987" cx="366.834097623881" cy="299.0104281950586" fill="#a70802"/><circle r="3.185660123880987" cx="367.185660123881" cy="329.3619906950586" fill="#a71602"/><circle r="3.537222623880987" cx="367.537222623881" cy="359.7135531950586" fill="#a72402"/><circle r="3.888785123880987" cx="367.888785123881" cy="390.0651156950586" fill="#a73202"/><circle r="4.240347623880988" cx="368.240347623881" cy="420.4166781950586" fill="#a74002"/><circle r="4.591910123880988" cx="368.591910123881" cy="450.7682406950586" fill="#a74e02"/><circle r="4.943472623880988" cx="368.943472623881" cy="481.1198031950586" fill="#a75c02"/><circle r="5.295035123880988" cx="369.295035123881" cy="511.4713656950586" fill="#a76a02"/><circle r="3.032715901598661" cx="397.03271590159864" cy="316.15780617135107" fill="#a7020a"/><circle r="3.384278401598661" cx="397.38427840159864" cy="346.50936867135107" fill="#a70802"/><circle r="3.735840901598661" cx="397.73584090159864" cy="376.86093117135107" fill="#a71602"/><circle r="4.087403401598661" cx="398.08740340159864" cy="407.21249367135107" fill="#a72402"/><circle r="4.438965901598661" cx="398.43896590159864" cy="437.56405617135107" fill="#a73202"/><circle r="4.790528401598661" cx="398.79052840159864" cy="467.91561867135107" fill="#a74002"/><circle r="5.142090901598661" cx="399.14209090159864" cy="498.26718117135107" fill="#a74e02"/><circle r="2.5198823955121776" cx="426.5198823955122" cy="271.8831801458847" fill="#a7020a"/><circle r="2.8714448955121776" cx="426.8714448955122" cy="302.2347426458847" fill="#a70802"/><circle r="3.2230073955121776" cx="427.2230073955122" cy="332.5863051458847" fill="#a71602"/><circle r="3.5745698955121776" cx="427.5745698955122" cy="362.9378676458847" fill="#a72402"/><circle r="3.9261323955121776" cx="427.9261323955122" cy="393.2894301458847" fill="#a73202"/><circle r="4.277694895512178" cx="428.2776948955122" cy="423.6409926458847" fill="#a74002"/><circle r="4.629257395512178" cx="428.6292573955122" cy="453.9925551458847" fill="#a74e02"/><circle r="4.980819895512178" cx="428.9808198955122" cy="484.3441176458847" fill="#a75c02"/><circle r="5.332382395512178" cx="429.3323823955122" cy="514.6956801458847" fill="#a76a02"/><circle r="2.6559026486351414" cx="456.65590264863516" cy="283.6262619988339" fill="#a7020a"/><circle r="3.0074651486351414" cx="457.00746514863516" cy="313.9778244988339" fill="#a70802"/><circle r="3.3590276486351414" cx="457.35902764863516" cy="344.3293869988339" fill="#a71602"/><circle r="3.7105901486351414" cx="457.71059014863516" cy="374.6809494988339" fill="#a72402"/><circle r="4.062152648635141" cx="458.06215264863516" cy="405.0325119988339" fill="#a73202"/><circle r="4.413715148635141" cx="458.41371514863516" cy="435.3840744988339" fill="#a74002"/><circle r="4.765277648635141" cx="458.76527764863516" cy="465.7356369988339" fill="#a74e02"/><circle r="5.116840148635141" cx="459.11684014863516" cy="496.0871994988339" fill="#a75c02"/><circle r="2.9848836923761866" cx="486.9848836923762" cy="312.02829210847744" fill="#a7020a"/><circle r="3.3364461923761866" cx="487.3364461923762" cy="342.37985460847744" fill="#a70802"/><circle r="3.6880086923761866" cx="487.6880086923762" cy="372.73141710847744" fill="#a71602"/><circle r="4.039571192376187" cx="488.0395711923762" cy="403.08297960847744" fill="#a72402"/><circle r="4.391133692376187" cx="488.3911336923762" cy="433.43454210847744" fill="#a73202"/><circle r="4.742696192376187" cx="488.7426961923762" cy="463.78610460847744" fill="#a74002"/><circle r="5.094258692376187" cx="489.0942586923762" cy="494.13766710847744" fill="#a74e02"/><circle r="3.4319124814628417" cx="517.4319124814629" cy="350.621777566292" fill="#a7020a"/><circle r="3.7834749814628417" cx="517.7834749814629" cy="380.973340066292" fill="#a70802"/><circle r="4.135037481462842" cx="518.1350374814629" cy="411.324902566292" fill="#a71602"/><circle r="4.486599981462842" cx="518.4865999814629" cy="441.676465066292" fill="#a72402"/><circle r="4.838162481462842" cx="518.8381624814629" cy="472.028027566292" fill="#a73202"/><circle r="5.189724981462842" cx="519.1897249814629" cy="502.379590066292" fill="#a74002"/><circle r="3.0830764795542294" cx="547.0830764795543" cy="320.5056027348485" fill="#a7020a"/><circle r="3.4346389795542294" cx="547.4346389795543" cy="350.8571652348485" fill="#a70802"/><circle r="3.7862014795542294" cx="547.7862014795543" cy="381.2087277348485" fill="#a71602"/><circle r="4.137763979554229" cx="548.1377639795543" cy="411.5602902348485" fill="#a72402"/><circle r="4.489326479554229" cx="548.4893264795543" cy="441.9118527348485" fill="#a73202"/><circle r="4.840888979554229" cx="548.8408889795543" cy="472.2634152348485" fill="#a74002"/><circle r="5.192451479554229" cx="549.1924514795543" cy="502.6149777348485" fill="#a74e02"/><circle r="2.9419918786193326" cx="576.9419918786193" cy="308.3252988541357" fill="#a7020a"/><circle r="3.2935543786193326" cx="577.2935543786193" cy="338.6768613541357" fill="#a70802"/><circle r="3.6451168786193326" cx="577.6451168786193" cy="369.0284238541357" fill="#a71602"/><circle r="3.9966793786193326" cx="577.9966793786193" cy="399.3799863541357" fill="#a72402"/><circle r="4.348241878619333" cx="578.3482418786193" cy="429.7315488541357" fill="#a73202"/><circle r="4.699804378619333" cx="578.6998043786193" cy="460.0831113541357" fill="#a74002"/><circle r="5.051366878619333" cx="579.0513668786193" cy="490.4346738541357" fill="#a74e02"/><circle r="3.090089274172538" cx="607.0900892741726" cy="321.1110406702291" fill="#a7020a"/><circle r="3.441651774172538" cx="607.4416517741726" cy="351.4626031702291" fill="#a70802"/><circle r="3.793214274172538" cx="607.7932142741726" cy="381.8141656702291" fill="#a71602"/><circle r="4.144776774172538" cx="608.1447767741726" cy="412.1657281702291" fill="#a72402"/><circle r="4.496339274172538" cx="608.4963392741726" cy="442.5172906702291" fill="#a73202"/><circle r="4.847901774172538" cx="608.8479017741726" cy="472.8688531702291" fill="#a74002"/><circle r="5.199464274172538" cx="609.1994642741726" cy="503.2204156702291" fill="#a74e02"/><circle r="2.764834023338281" cx="636.7648340233383" cy="293.03067068153825" fill="#a7020a"/><circle r="3.116396523338281" cx="637.1163965233383" cy="323.38223318153825" fill="#a70802"/><circle r="3.467959023338281" cx="637.4679590233383" cy="353.73379568153825" fill="#a71602"/><circle r="3.819521523338281" cx="637.8195215233383" cy="384.08535818153825" fill="#a72402"/><circle r="4.171084023338281" cx="638.1710840233383" cy="414.43692068153825" fill="#a73202"/><circle r="4.522646523338281" cx="638.5226465233383" cy="444.78848318153825" fill="#a74002"/><circle r="4.874209023338281" cx="638.8742090233383" cy="475.14004568153825" fill="#a74e02"/><circle r="5.225771523338281" cx="639.2257715233383" cy="505.49160818153825" fill="#a75c02"/><circle r="2.781606750201334" cx="666.7816067502014" cy="294.47871610071513" fill="#a7020a"/><circle r="3.133169250201334" cx="667.1331692502014" cy="324.83027860071513" fill="#a70802"/><circle r="3.484731750201334" cx="667.4847317502014" cy="355.18184110071513" fill="#a71602"/><circle r="3.836294250201334" cx="667.8362942502014" cy="385.53340360071513" fill="#a72402"/><circle r="4.187856750201334" cx="668.1878567502014" cy="415.88496610071513" fill="#a73202"/><circle r="4.539419250201334" cx="668.5394192502014" cy="446.23652860071513" fill="#a74002"/><circle r="4.890981750201334" cx="668.8909817502014" cy="476.58809110071513" fill="#a74e02"/><circle r="5.242544250201334" cx="669.2425442502014" cy="506.93965360071513" fill="#a75c02"/><circle r="2.997766527034673" cx="696.9977665270346" cy="313.1405101673268" fill="#a7020a"/><circle r="3.349329027034673" cx="697.3493290270346" cy="343.4920726673268" fill="#a70802"/><circle r="3.700891527034673" cx="697.7008915270346" cy="373.8436351673268" fill="#a71602"/><circle r="4.052454027034673" cx="698.0524540270346" cy="404.1951976673268" fill="#a72402"/><circle r="4.404016527034673" cx="698.4040165270346" cy="434.5467601673268" fill="#a73202"/><circle r="4.755579027034673" cx="698.7555790270346" cy="464.8983226673268" fill="#a74002"/><circle r="5.107141527034673" cx="699.1071415270346" cy="495.2498851673268" fill="#a74e02"/><circle r="2.531336307278647" cx="726.5313363072786" cy="272.87203452838986" fill="#a7020a"/><circle r="2.882898807278647" cx="726.8828988072786" cy="303.22359702838986" fill="#a70802"/><circle r="3.234461307278647" cx="727.2344613072786" cy="333.57515952838986" fill="#a71602"/><circle r="3.586023807278647" cx="727.5860238072786" cy="363.92672202838986" fill="#a72402"/><circle r="3.937586307278647" cx="727.9375863072786" cy="394.27828452838986" fill="#a73202"/><circle r="4.289148807278647" cx="728.2891488072786" cy="424.62984702838986" fill="#a74002"/><circle r="4.640711307278647" cx="728.6407113072786" cy="454.98140952838986" fill="#a74e02"/><circle r="4.992273807278647" cx="728.9922738072786" cy="485.33297202838986" fill="#a75c02"/><circle r="5.343836307278647" cx="729.3438363072786" cy="515.6845345283898" fill="#a76a02"/><circle r="2.9005996403273424" cx="756.9005996403273" cy="304.7517689482606" fill="#a7020a"/><circle r="3.2521621403273424" cx="757.2521621403273" cy="335.1033314482606" fill="#a70802"/><circle r="3.6037246403273424" cx="757.6037246403273" cy="365.4548939482606" fill="#a71602"/><circle r="3.9552871403273424" cx="757.9552871403273" cy="395.8064564482606" fill="#a72402"/><circle r="4.306849640327343" cx="758.3068496403273" cy="426.1580189482606" fill="#a73202"/><circle r="4.658412140327343" cx="758.6584121403273" cy="456.5095814482606" fill="#a74002"/><circle r="5.009974640327343" cx="759.0099746403273" cy="486.8611439482606" fill="#a74e02"/><circle r="5.361537140327343" cx="759.3615371403273" cy="517.2127064482605" fill="#a75c02"/><circle r="3.142860408335375" cx="787.1428604083354" cy="325.6669485862874" fill="#a7020a"/><circle r="3.494422908335375" cx="787.4944229083354" cy="356.0185110862874" fill="#a70802"/><circle r="3.845985408335375" cx="787.8459854083354" cy="386.3700735862874" fill="#a71602"/><circle r="4.197547908335375" cx="788.1975479083354" cy="416.7216360862874" fill="#a72402"/><circle r="4.549110408335375" cx="788.5491104083354" cy="447.0731985862874" fill="#a73202"/><circle r="4.900672908335375" cx="788.9006729083354" cy="477.4247610862874" fill="#a74002"/><circle r="5.252235408335375" cx="789.2522354083354" cy="507.7763235862874" fill="#a74e02"/><circle r="3.04729264556234" cx="817.0472926455624" cy="317.41626506688203" fill="#a7020a"/><circle r="3.39885514556234" cx="817.3988551455624" cy="347.76782756688203" fill="#a70802"/><circle r="3.75041764556234" cx="817.7504176455624" cy="378.11939006688203" fill="#a71602"/><circle r="4.10198014556234" cx="818.1019801455624" cy="408.47095256688203" fill="#a72402"/><circle r="4.45354264556234" cx="818.4535426455624" cy="438.82251506688203" fill="#a73202"/><circle r="4.80510514556234" cx="818.8051051455624" cy="469.17407756688203" fill="#a74002"/><circle r="5.15666764556234" cx="819.1566676455624" cy="499.52564006688203" fill="#a74e02"/><circle r="2.967427839207713" cx="846.9674278392077" cy="310.5212701182659" fill="#a7020a"/><circle r="3.318990339207713" cx="847.3189903392077" cy="340.8728326182659" fill="#a70802"/><circle r="3.670552839207713" cx="847.6705528392077" cy="371.2243951182659" fill="#a71602"/><circle r="4.022115339207713" cx="848.0221153392077" cy="401.5759576182659" fill="#a72402"/><circle r="4.373677839207713" cx="848.3736778392077" cy="431.9275201182659" fill="#a73202"/><circle r="4.725240339207713" cx="848.7252403392077" cy="462.2790826182659" fill="#a74002"/><circle r="5.076802839207713" cx="849.0768028392077" cy="492.6306451182659" fill="#a74e02"/><circle r="3.3463984101029722" cx="877.346398410103" cy="343.2390627388899" fill="#a7020a"/><circle r="3.6979609101029722" cx="877.697960910103" cy="373.5906252388899" fill="#a70802"/><circle r="4.049523410102973" cx="878.049523410103" cy="403.9421877388899" fill="#a71602"/><circle r="4.401085910102973" cx="878.401085910103" cy="434.2937502388899" fill="#a72402"/><circle r="4.752648410102973" cx="878.752648410103" cy="464.6453127388899" fill="#a73202"/><circle r="5.104210910102973" cx="879.104210910103" cy="494.9968752388899" fill="#a74002"/></svg>