<?xml version="1.0" encoding="utf-8"?>
<!-- Generator: Adobe Illustrator 27.1.1, SVG Export Plug-In . SVG Version: 6.00 Build 0)  -->
<svg version="1.1" id="Layer_1" xmlns="http://www.w3.org/2000/svg" xmlns:xlink="http://www.w3.org/1999/xlink" x="0px" y="0px"
	 viewBox="0 0 250 250.89" style="enable-background:new 0 0 250 250.89;" xml:space="preserve">
<style type="text/css">
	.st0{fill:#FFFFFF;stroke:#000000;stroke-width:0.5;stroke-miterlimit:10;}
	.st1{fill:#FFFFFF;stroke:#FFFFFF;stroke-width:0.5;stroke-miterlimit:10;}
</style>
<rect x="78.37" y="52.12" transform="matrix(0.6909 -0.7229 0.7229 0.6909 -6.5996 114.3866)" class="st0" width="104.21" height="25.58"/>
<line class="st0" x1="123.31" y1="75.9" x2="117.07" y2="69.46"/>
<line class="st0" x1="128.13" y1="80.86" x2="123.31" y2="75.9"/>
<line class="st0" x1="129.41" y1="82.18" x2="128.13" y2="80.86"/>
<polyline class="st0" points="148.24,64.85 175.94,93.39 157.59,111.21 129.41,82.18 "/>
<line class="st0" x1="146.79" y1="63.36" x2="148.24" y2="64.85"/>
<line class="st0" x1="130.48" y1="46.55" x2="146.79" y2="63.36"/>
<polyline class="st0" points="113.65,65.94 85.01,36.43 103.37,18.61 130.48,46.55 "/>
<line class="st0" x1="117.07" y1="69.46" x2="113.65" y2="65.94"/>
<rect x="117.1" y="51.86" transform="matrix(0.6904 -0.7235 0.7235 0.6904 -5.9759 114.2433)" class="st1" width="26.75" height="24.49"/>
</svg>
