<?xml version="1.0" encoding="utf-8"?>
<svg version="1.1" id="Layer_1" x="0px" y="0px" viewBox="0 0 273.13 291.91" style="enable-background:new 0 0 273.13 291.91;" xmlns="http://www.w3.org/2000/svg">
  <defs>
    <radialGradient gradientUnits="userSpaceOnUse" cx="136.71" cy="152.31" r="119.2" id="gradient-0">
      <stop offset="0" style="stop-color: rgba(1, 25, 146, 1)"/>
      <stop offset="1" style="stop-color: rgba(0, 8, 45, 1)"/>
    </radialGradient>
  </defs>
  <style type="text/css">
	.st0{fill:#FFFFFF;stroke:#000000;stroke-miterlimit:10;}
</style>
  <path class="st0" d="M64.24,20.44l72.47,166.38l77.24-166.38h41.96l-119.2,263.74L17.51,20.44H64.24z M145.77,159.69L145.77,159.69 c0.19-0.51,0.17-1.08-0.05-1.59l-15.44-35.14c-0.72-1.64-2.99-1.79-3.83-0.27l-1.52,2.75c-0.31,0.56-0.34,1.23-0.09,1.83 l13.47,32.37C139.71,163.03,144.52,163.06,145.77,159.69z M124.78,120.75l2.31-4.14c0.27-0.48,0.32-1.06,0.13-1.58l-0.66-1.87 c-0.52-1.47-2.45-1.65-3.21-0.3l-2.37,4.24c-0.29,0.51-0.32,1.13-0.1,1.67l0.72,1.77C122.18,121.95,124.04,122.07,124.78,120.75z M165.9,114.54l13.96-31.44c0.17-0.39,0.18-0.84,0.01-1.24l-10.49-24.51c-0.49-1.13-2-1.18-2.56-0.08l-2.93,5.84 c-0.19,0.38-0.22,0.83-0.07,1.23l7.37,19.97c0.14,0.37,0.13,0.79-0.03,1.15l-5.77,13.4c-0.51,1.19-2.13,1.16-2.61-0.03l-7.81-19.45 c-0.48-1.2-2.09-1.22-2.61-0.04l-2.77,6.42c-0.16,0.37-0.17,0.8-0.02,1.17l10.65,27.47C161.24,117.02,164.76,117.11,165.9,114.54z M146.58,146.32l-13.04-27.76c-0.26-0.55-0.25-1.2,0.03-1.74l8.64-16.81c0.25-0.49,0.29-1.08,0.09-1.6l-10.28-27 c-0.18-0.47-0.17-1,0.02-1.46l0.88-2.12c0.63-1.5,2.66-1.52,3.31-0.03l23.5,53.92c0.22,0.5,0.22,1.07,0,1.57l-9.88,22.98 C149.23,147.72,147.26,147.76,146.58,146.32z M141.27,121.96l5.58,12.5c0.43,0.97,1.75,0.97,2.18,0l4.63-10.31 c0.6-1.33,0.61-2.88,0.03-4.22l-5.23-12.16c-0.41-0.95-1.67-1-2.15-0.09l-4.89,9.25C140.61,118.49,140.55,120.35,141.27,121.96z" style="fill: aliceblue; paint-order: stroke; stroke: url(#gradient-0); stroke-width: 17px;"/>
</svg>